<svg width="24" height="24" viewBox="0 0 24 24" fill="none" xmlns="http://www.w3.org/2000/svg">
<path d="M10.8 21.5998H4.80001C3.47453 21.5998 2.40002 20.5253 2.40002 19.1998L2.40012 4.79989C2.40013 3.47441 3.47464 2.3999 4.80012 2.3999H15.6004C16.9259 2.3999 18.0004 3.47442 18.0004 4.7999V9.5999M17.4 17.3489V17.2857M6.6004 7.1999H13.8004M6.6004 10.7999H13.8004M6.6004 14.3999H10.2004M21.6 17.3999C21.6 17.3999 20.6039 20.3396 17.4 20.2882C14.1962 20.2369 13.2 17.3999 13.2 17.3999C13.2 17.3999 14.1558 14.4089 17.4 14.4089C20.6443 14.4089 21.6 17.3999 21.6 17.3999Z" stroke="#B3C2EF" stroke-width="2" stroke-linecap="round" stroke-linejoin="round"/>
</svg>
