<svg width="44" height="44" viewBox="0 0 44 44" fill="none" xmlns="http://www.w3.org/2000/svg">
    <g clip-path="url(#clip0_76_101)">
        <path d="M44 0H0V44H44V0Z" fill="url(#paint0_linear_76_101)"/>
        <path d="M32.6808 27.5154H24.6187C23.3982 27.5154 22.4089 28.5048 22.4089 29.7252V32.6717C22.4089 33.8922 23.3982 34.8815 24.6187 34.8815H32.6808C33.9013 34.8815 34.8906 33.8922 34.8906 32.6717V29.7252C34.8906 28.5048 33.9013 27.5154 32.6808 27.5154Z" fill="white"/>
        <path d="M9.10938 11.3192C9.10938 10.0987 10.0987 9.10938 11.3192 9.10938H32.6808C33.9013 9.10938 34.8906 10.0987 34.8906 11.3192V23.4731C34.8906 24.6936 33.9013 25.6831 32.6808 25.6831H22.7776C21.5571 25.6831 20.5678 26.6724 20.5678 27.8929V32.6808C20.5678 33.9013 19.5783 34.8906 18.358 34.8906H11.3192C10.0987 34.8906 9.10938 33.9013 9.10938 32.6808V20.5269C9.10938 19.3064 10.0987 18.3169 11.3192 18.3169H22.5115C23.0201 18.3169 23.4322 17.9047 23.4322 17.3962C23.4322 16.8876 23.0201 16.4754 22.5115 16.4754H11.3192C10.0987 16.4754 9.10938 15.4861 9.10938 14.2656V11.3192Z" fill="white"/>
    </g>
    <defs>
        <linearGradient id="paint0_linear_76_101" x1="44" y1="0" x2="0" y2="44" gradientUnits="userSpaceOnUse">
            <stop stop-color="#3150EE" stop-opacity="0.7"/>
            <stop offset="1" stop-color="#3150EE"/>
        </linearGradient>
        <clipPath id="clip0_76_101">
            <rect width="44" height="44" fill="white"/>
        </clipPath>
    </defs>
</svg>
