<svg width="44" height="44" viewBox="0 0 44 44" fill="none" xmlns="http://www.w3.org/2000/svg">
    <g clip-path="url(#clip0_75_83)">
        <rect width="44" height="44" fill="black"/>
        <mask id="mask0_75_83" style="mask-type:luminance" maskUnits="userSpaceOnUse" x="0" y="0" width="44" height="44">
            <path d="M44 0H0V44H44V0Z" fill="white"/>
        </mask>
        <g mask="url(#mask0_75_83)">
            <path d="M38.6592 18.0387L38.5169 17.3718L32.9121 16.3896L36.1749 11.9665L35.7993 11.533L31.0033 13.846L31.6093 7.71626L31.1185 7.42826L28.201 12.4001L24.935 5H24.3595L25.138 12.1393L16.9034 5.5184L16.2097 5.72151L22.5386 13.7308L9.99891 9.53825L9.42023 10.1749L20.6299 16.5926L5.1727 17.8932L5 18.8481L21.0631 20.6095L7.657 31.7716L8.23563 32.5508L24.1836 23.8199L21.0358 39.202H21.9902L28.113 24.7172L31.8426 36.0492L32.5061 35.5278L30.976 24.023L36.7809 30.6439L37.1565 30.0346L32.7091 21.8252L38.9198 24.1382L38.9774 23.444L33.4028 19.309L38.6592 18.0387Z" fill="#FED42B"/>
        </g>
    </g>
    <defs>
        <clipPath id="clip0_75_83">
            <rect width="44" height="44" fill="white"/>
        </clipPath>
    </defs>
</svg>
