<svg width="79" height="79" viewBox="0 0 79 79" fill="none" xmlns="http://www.w3.org/2000/svg">
<g clip-path="url(#clip0_155_42)">
<path d="M39.475 79C61.2765 79 78.95 61.3152 78.95 39.5C78.95 17.6847 61.2765 0 39.475 0C17.6736 0 0 17.6847 0 39.5C0 61.3152 17.6736 79 39.475 79Z" fill="black"/>
<path d="M69.475 31.6347L69.2194 30.4373L59.1562 28.6738L65.0145 20.7324L64.3402 19.9541L55.7292 24.107L56.8171 13.1013L55.936 12.5842L50.6977 21.5109L44.8338 8.22437H43.8004L45.1982 21.0427L30.4134 9.15513L29.1678 9.51981L40.5312 23.9002L18.0167 16.3726L16.9777 17.5156L37.1041 29.0384L9.35145 31.3736L9.04138 33.088L37.882 36.2505L13.8119 56.2916L14.8508 57.6905L43.4847 42.0146L37.833 69.6325H39.5465L50.5398 43.6257L57.2361 63.9718L58.4273 63.0356L55.6802 42.3793L66.1025 54.2669L66.777 53.1728L58.7918 38.4332L69.9429 42.5861L70.0462 41.3397L60.0374 33.9155L69.475 31.6347Z" fill="#5865F2"/>
</g>
<defs>
<clipPath id="clip0_155_42">
<rect width="79" height="79" fill="white"/>
</clipPath>
</defs>
</svg>
