<svg width="210" height="210" viewBox="0 0 210 210" fill="none" xmlns="http://www.w3.org/2000/svg">
    <path d="M105 183C148.078 183 183 148.078 183 105C183 61.9218 148.078 27 105 27C61.9218 27 27 61.9218 27 105C27 148.078 61.9218 183 105 183Z" fill="#302E31" stroke="white" stroke-width="8"/>
    <path d="M65.3469 64.0391C67.7436 52.4698 75.5871 42.0335 86.1324 36.8044C84.2979 38.6673 82.0799 40.0944 80.3804 42.1206C73.4302 49.6156 70.2927 60.4659 72.21 70.4447C74.6285 85.6743 88.943 98.1151 104.456 97.8972C116.483 98.4353 128.204 91.5134 134.087 81.0771C146.68 81.5041 158.925 88.0056 166.115 98.4419C169.797 103.889 172.673 110.273 172.869 116.918C170.538 108.094 164.677 100.25 156.681 95.8274C148.946 91.4698 139.447 90.3586 130.972 92.9296C120.339 95.9799 111.559 104.673 108.53 115.371C105.959 123.89 107.059 133.28 111.101 141.08C105.48 150.82 95.3268 157.77 84.3022 159.861C75.8268 161.639 66.9156 160.267 59.0285 156.702C66.0877 158.761 73.757 159.121 80.7726 156.625C90.1849 153.51 97.9631 145.949 101.384 136.624C105.175 126.471 103.737 114.401 97.3531 105.686C92.5816 98.8225 85.0648 93.9856 76.8944 92.2644C74.3017 91.8025 71.6871 91.5933 69.0726 91.3537C64.9112 82.9654 63.386 73.2263 65.4776 64.119L65.3469 64.0391Z" fill="white"/>
</svg>
