<svg width="150" height="70" viewBox="0 0 150 70" fill="none" xmlns="http://www.w3.org/2000/svg">
    <g clip-path="url(#clip0_5277_1081)">
        <path d="M37.6536 43.584H57V55.0001H37.6536V43.584Z" fill="#E4E5EA"/>
        <path d="M17 15H57V40.7143H34.7778V55H17V29.2857H39.2222V26.4286H17V15Z" fill="#E4E5EA"/>
    </g>
    <path d="M69 29L81 41M81 29L69 41" stroke="#E4E5EA" stroke-width="3"/>
    <path d="M137.896 18.35C134.414 16.7624 130.738 15.6362 126.961 15C126.446 15.9198 125.977 16.8662 125.561 17.8352C121.539 17.2316 117.448 17.2316 113.426 17.8352C113.01 16.8663 112.542 15.92 112.026 15C108.247 15.6415 104.569 16.7705 101.083 18.3583C94.163 28.5533 92.2871 38.4952 93.2251 48.2961C97.2775 51.2775 101.813 53.5452 106.636 55C107.721 53.5458 108.682 52.003 109.508 50.3884C107.94 49.8051 106.426 49.0854 104.985 48.238C105.364 47.9641 105.735 47.6816 106.094 47.4078C110.288 49.3717 114.865 50.3903 119.5 50.3903C124.135 50.3903 128.712 49.3717 132.907 47.4078C133.269 47.7025 133.641 47.9846 134.015 48.238C132.571 49.087 131.055 49.8077 129.485 50.3926C130.308 52.0065 131.27 53.5481 132.355 55C137.182 53.551 141.722 51.2846 145.775 48.3001C146.875 36.9345 143.894 27.0839 137.896 18.35ZM110.696 42.2687C108.082 42.2687 105.923 39.9068 105.923 37.001C105.923 34.0952 108.007 31.7123 110.687 31.7123C113.368 31.7123 115.51 34.0952 115.465 37.001C115.419 39.9068 113.36 42.2687 110.696 42.2687ZM128.303 42.2687C125.686 42.2687 123.535 39.9068 123.535 37.001C123.535 34.0952 125.619 31.7123 128.303 31.7123C130.989 31.7123 133.115 34.0952 133.069 37.001C133.022 39.9068 130.968 42.2687 128.303 42.2687Z" fill="#E4E5EA"/>
    <defs>
        <clipPath id="clip0_5277_1081">
            <rect width="40" height="40" fill="white" transform="translate(17 15)"/>
        </clipPath>
    </defs>
</svg>
