<svg width="327" height="41" viewBox="0 0 327 41" fill="none" xmlns="http://www.w3.org/2000/svg">
<path d="M0.52002 40V1.22499H19.165C22.0984 1.22499 24.5917 1.73833 26.645 2.76499C28.6984 3.75499 30.2567 5.20333 31.32 7.10999C32.42 8.97999 32.97 11.2533 32.97 13.93C32.97 16.5333 32.42 18.8067 31.32 20.75C30.2567 22.6567 28.6984 24.1233 26.645 25.15C24.5917 26.14 22.0984 26.635 19.165 26.635H10.64V40H0.52002ZM10.64 18.88H17.405C19.3117 18.88 20.7784 18.4767 21.805 17.67C22.8317 16.8267 23.345 15.58 23.345 13.93C23.345 12.2433 22.8317 10.9967 21.805 10.19C20.7784 9.38333 19.3117 8.98 17.405 8.98H10.64V18.88Z" fill="#E4E5EA"/>
<path d="M54.848 40.605C49.2013 40.605 44.8747 39.175 41.868 36.315C38.898 33.455 37.413 29.1833 37.413 23.5V1.22499H47.533V23.61C47.533 26.4333 48.1563 28.56 49.403 29.99C50.6497 31.42 52.4647 32.135 54.848 32.135C57.1947 32.135 58.9913 31.42 60.238 29.99C61.4847 28.56 62.108 26.4333 62.108 23.61V1.22499H72.063V23.5C72.063 29.1833 70.5963 33.455 67.663 36.315C64.7663 39.175 60.4947 40.605 54.848 40.605Z" fill="#E4E5EA"/>
<path d="M78.8306 40V1.22499H88.9506V31.585H106.221V40H78.8306Z" fill="#E4E5EA"/>
<path d="M124.769 40.605C122.752 40.605 120.772 40.44 118.829 40.11C116.886 39.78 115.089 39.3033 113.439 38.68C111.789 38.0567 110.359 37.3233 109.149 36.48L111.954 28.615C113.091 29.3483 114.356 29.99 115.749 30.54C117.142 31.09 118.609 31.53 120.149 31.86C121.689 32.1533 123.229 32.3 124.769 32.3C127.189 32.3 128.876 31.9883 129.829 31.365C130.819 30.705 131.314 29.8983 131.314 28.945C131.314 28.3583 131.167 27.8633 130.874 27.46C130.581 27.0567 130.086 26.7083 129.389 26.415C128.729 26.085 127.831 25.81 126.694 25.59L120.259 24.215C116.739 23.4817 114.117 22.1983 112.394 20.365C110.671 18.5317 109.809 16.1667 109.809 13.27C109.809 10.7033 110.487 8.48499 111.844 6.61499C113.237 4.70833 115.162 3.24166 117.619 2.21499C120.112 1.15166 122.972 0.619995 126.199 0.619995C127.996 0.619995 129.719 0.784995 131.369 1.115C133.056 1.445 134.614 1.94 136.044 2.6C137.474 3.22333 138.684 3.95666 139.674 4.79999L136.869 12.17C135.476 11.1433 133.844 10.355 131.974 9.80499C130.141 9.21833 128.179 8.925 126.089 8.925C124.732 8.925 123.577 9.09 122.624 9.41999C121.671 9.71333 120.937 10.1533 120.424 10.74C119.947 11.3267 119.709 12.005 119.709 12.775C119.709 13.545 120.021 14.205 120.644 14.755C121.304 15.2683 122.496 15.7083 124.219 16.075L130.599 17.45C134.156 18.22 136.814 19.485 138.574 21.245C140.334 23.005 141.214 25.2967 141.214 28.12C141.214 30.6133 140.536 32.8133 139.179 34.72C137.822 36.59 135.916 38.0383 133.459 39.065C131.002 40.0917 128.106 40.605 124.769 40.605Z" fill="#E4E5EA"/>
<path d="M146.184 40V1.22499H173.574V9.035H155.864V16.405H172.309V24.215H155.864V32.19H173.574V40H146.184Z" fill="#E4E5EA"/>
<path d="M193.841 40.605C191.824 40.605 189.844 40.44 187.901 40.11C185.958 39.78 184.161 39.3033 182.511 38.68C180.861 38.0567 179.431 37.3233 178.221 36.48L181.026 28.615C182.163 29.3483 183.428 29.99 184.821 30.54C186.214 31.09 187.681 31.53 189.221 31.86C190.761 32.1533 192.301 32.3 193.841 32.3C196.261 32.3 197.948 31.9883 198.901 31.365C199.891 30.705 200.386 29.8983 200.386 28.945C200.386 28.3583 200.239 27.8633 199.946 27.46C199.653 27.0567 199.158 26.7083 198.461 26.415C197.801 26.085 196.903 25.81 195.766 25.59L189.331 24.215C185.811 23.4817 183.189 22.1983 181.466 20.365C179.743 18.5317 178.881 16.1667 178.881 13.27C178.881 10.7033 179.559 8.48499 180.916 6.61499C182.309 4.70833 184.234 3.24166 186.691 2.21499C189.184 1.15166 192.044 0.619995 195.271 0.619995C197.068 0.619995 198.791 0.784995 200.441 1.115C202.128 1.445 203.686 1.94 205.116 2.6C206.546 3.22333 207.756 3.95666 208.746 4.79999L205.941 12.17C204.548 11.1433 202.916 10.355 201.046 9.80499C199.213 9.21833 197.251 8.925 195.161 8.925C193.804 8.925 192.649 9.09 191.696 9.41999C190.743 9.71333 190.009 10.1533 189.496 10.74C189.019 11.3267 188.781 12.005 188.781 12.775C188.781 13.545 189.093 14.205 189.716 14.755C190.376 15.2683 191.568 15.7083 193.291 16.075L199.671 17.45C203.228 18.22 205.886 19.485 207.646 21.245C209.406 23.005 210.286 25.2967 210.286 28.12C210.286 30.6133 209.608 32.8133 208.251 34.72C206.894 36.59 204.988 38.0383 202.531 39.065C200.074 40.0917 197.178 40.605 193.841 40.605Z" fill="#E4E5EA"/>
<path d="M223.366 40V20.2L225.456 25.755L208.461 1.22499H220.066L229.581 15.305H227.601L237.116 1.22499H248.391L231.451 25.755L233.486 20.2V40H223.366Z" fill="#E4E5EA"/>
<path d="M252.478 40V1.22499H259.903L279.263 25.37H277.723V1.22499H287.073V40H279.703L260.343 15.8H261.883V40H252.478Z" fill="#E4E5EA"/>
<path d="M313.738 40.605C309.448 40.605 305.763 39.78 302.683 38.13C299.603 36.48 297.238 34.1517 295.588 31.145C293.974 28.1383 293.168 24.6183 293.168 20.585C293.168 16.5517 293.974 13.05 295.588 10.08C297.238 7.07333 299.603 4.74499 302.683 3.095C305.763 1.445 309.448 0.619995 313.738 0.619995C316.304 0.619995 318.779 1.00499 321.163 1.77499C323.546 2.54499 325.471 3.59 326.938 4.91L323.913 12.885C322.299 11.7117 320.686 10.85 319.073 10.3C317.459 9.71333 315.809 9.41999 314.123 9.41999C310.713 9.41999 308.146 10.3917 306.423 12.335C304.699 14.2417 303.838 16.9917 303.838 20.585C303.838 24.215 304.699 27.0017 306.423 28.945C308.146 30.8517 310.713 31.805 314.123 31.805C315.809 31.805 317.459 31.53 319.073 30.98C320.686 30.3933 322.299 29.5133 323.913 28.34L326.938 36.315C325.471 37.5983 323.546 38.6433 321.163 39.45C318.779 40.22 316.304 40.605 313.738 40.605Z" fill="#E4E5EA"/>
</svg>