<svg width="24" height="24" viewBox="0 0 24 24" fill="none" xmlns="http://www.w3.org/2000/svg">
<path d="M16.5622 2.78718L15.8374 3.47611L15.8374 3.47611L16.5622 2.78718ZM18.0004 4.1999L18.6672 3.45466L18.6672 3.45466L18.0004 4.1999ZM19.4704 5.65503L18.7504 6.34908L18.7504 6.34908L19.4704 5.65503ZM19.8004 6.47773L18.8004 6.47771V6.47773H19.8004ZM4.20012 4.79989L3.20012 4.79988V4.79989H4.20012ZM2.40002 13.9999C1.84774 13.9999 1.40002 14.4476 1.40002 14.9999C1.40002 15.5522 1.84774 15.9999 2.40002 15.9999V13.9999ZM21.6 15.9999C22.1523 15.9999 22.6 15.5522 22.6 14.9999C22.6 14.4476 22.1523 13.9999 21.6 13.9999V15.9999ZM3.20012 10.1999C3.20012 10.7522 3.64783 11.1999 4.20012 11.1999C4.7524 11.1999 5.20012 10.7522 5.20012 10.1999H3.20012ZM18.8004 10.1999C18.8004 10.7522 19.2481 11.1999 19.8004 11.1999C20.3527 11.1999 20.8004 10.7522 20.8004 10.1999H18.8004ZM5.2004 19.1999C5.2004 18.6476 4.75268 18.1999 4.2004 18.1999C3.64811 18.1999 3.2004 18.6476 3.2004 19.1999H5.2004ZM3.2004 21.5999C3.2004 22.1522 3.64811 22.5999 4.2004 22.5999C4.75268 22.5999 5.2004 22.1522 5.2004 21.5999H3.2004ZM13.6004 19.1999C13.6004 18.6476 13.1527 18.1999 12.6004 18.1999C12.0481 18.1999 11.6004 18.6476 11.6004 19.1999H13.6004ZM11.6004 21.5999C11.6004 22.1522 12.0481 22.5999 12.6004 22.5999C13.1527 22.5999 13.6004 22.1522 13.6004 21.5999H11.6004ZM22.0004 19.1999C22.0004 18.6476 21.5527 18.1999 21.0004 18.1999C20.4481 18.1999 20.0004 18.6476 20.0004 19.1999H22.0004ZM20.0004 21.5999C20.0004 22.1522 20.4481 22.5999 21.0004 22.5999C21.5527 22.5999 22.0004 22.1522 22.0004 21.5999H20.0004ZM9.4004 19.1999C9.4004 18.6476 8.95268 18.1999 8.4004 18.1999C7.84811 18.1999 7.4004 18.6476 7.4004 19.1999H9.4004ZM7.4004 20.3999C7.4004 20.9522 7.84811 21.3999 8.4004 21.3999C8.95268 21.3999 9.4004 20.9522 9.4004 20.3999H7.4004ZM17.8004 19.1999C17.8004 18.6476 17.3527 18.1999 16.8004 18.1999C16.2481 18.1999 15.8004 18.6476 15.8004 19.1999H17.8004ZM15.8004 20.3999C15.8004 20.9522 16.2481 21.3999 16.8004 21.3999C17.3527 21.3999 17.8004 20.9522 17.8004 20.3999H15.8004ZM6.60012 3.3999H15.0004V1.3999H6.60012V3.3999ZM15.0004 3.3999H15.6698V1.3999H15.0004V3.3999ZM15.8374 3.47611C16.1934 3.85066 16.7694 4.44033 17.3336 4.94514L18.6672 3.45466C18.1632 3.00376 17.6308 2.4599 17.2871 2.09825L15.8374 3.47611ZM17.3336 4.94514C17.72 5.29091 18.3523 5.93606 18.7504 6.34908L20.1903 4.96099C19.8009 4.55704 19.1179 3.85793 18.6672 3.45466L17.3336 4.94514ZM20.8004 6.47776C20.8004 5.91641 20.586 5.3714 20.1903 4.96099L18.7504 6.34908C18.7807 6.38048 18.8004 6.42538 18.8004 6.47771L20.8004 6.47776ZM15.6698 3.3999C15.7252 3.3999 15.7874 3.42349 15.8374 3.47611L17.2871 2.09825C16.8715 1.66098 16.2903 1.3999 15.6698 1.3999V3.3999ZM6.60012 1.3999C4.72236 1.3999 3.20013 2.92212 3.20012 4.79988L5.20012 4.79989C5.20012 4.0267 5.82692 3.3999 6.60012 3.3999V1.3999ZM14.0004 2.3999V5.9999H16.0004V2.3999H14.0004ZM16.2004 8.1999H19.8004V6.1999H16.2004V8.1999ZM14.0004 5.9999C14.0004 7.21493 14.9854 8.1999 16.2004 8.1999V6.1999C16.0899 6.1999 16.0004 6.11036 16.0004 5.9999H14.0004ZM2.40002 15.9999H21.6V13.9999H2.40002V15.9999ZM3.20012 4.79989V10.1999H5.20012V4.79989H3.20012ZM18.8004 6.47773V7.1999H20.8004V6.47773H18.8004ZM18.8004 7.1999V10.1999H20.8004V7.1999H18.8004ZM3.2004 19.1999V21.5999H5.2004V19.1999H3.2004ZM11.6004 19.1999V21.5999H13.6004V19.1999H11.6004ZM20.0004 19.1999V21.5999H22.0004V19.1999H20.0004ZM7.4004 19.1999V20.3999H9.4004V19.1999H7.4004ZM15.8004 19.1999V20.3999H17.8004V19.1999H15.8004Z" fill="#EF6565"/>
</svg>
