<svg width="29" height="29" viewBox="0 0 29 29" fill="none" xmlns="http://www.w3.org/2000/svg">
<g clip-path="url(#clip0_1202_1767)">
<path d="M19.3454 8.45833L19.3333 4.83333C19.3333 4.16875 18.7896 3.625 18.125 3.625C17.4604 3.625 16.9167 4.16875 16.9167 4.83333V8.45833H12.0833V4.83333C12.0833 4.16875 11.5396 3.625 10.875 3.625C10.2104 3.625 9.66667 4.16875 9.66667 4.83333V8.45833H9.65458C8.3375 8.45833 7.25 9.54583 7.25 10.8629V16.4937C7.25 17.1342 7.50375 17.7504 7.95083 18.1975L11.4792 21.75V24.1667C11.4792 24.8313 12.0229 25.375 12.6875 25.375H16.3125C16.9771 25.375 17.5208 24.8313 17.5208 24.1667V21.75L21.0492 18.2217C21.4963 17.7625 21.75 17.1463 21.75 16.5058V10.8629C21.75 9.53375 20.6746 8.45833 19.3454 8.45833Z" fill="#EEF1FF"/>
</g>
<defs>
<clipPath id="clip0_1202_1767">
<rect width="29" height="29" fill="white"/>
</clipPath>
</defs>
</svg>
