<svg width="29" height="29" viewBox="0 0 29 29" fill="none" xmlns="http://www.w3.org/2000/svg">
<g clip-path="url(#clip0_648_1422)">
<path fill-rule="evenodd" clip-rule="evenodd" d="M20.1428 15.8654C21.7982 16.9892 22.9582 18.5117 22.9582 20.5417V24.1667H26.5832C27.2478 24.1667 27.7916 23.6229 27.7916 22.9583V20.5417C27.7916 17.9075 23.4778 16.3488 20.1428 15.8654Z" fill="#EEF1FF"/>
<path d="M10.8748 14.5C13.5442 14.5 15.7082 12.336 15.7082 9.66667C15.7082 6.99729 13.5442 4.83334 10.8748 4.83334C8.20546 4.83334 6.0415 6.99729 6.0415 9.66667C6.0415 12.336 8.20546 14.5 10.8748 14.5Z" fill="#EEF1FF"/>
<path fill-rule="evenodd" clip-rule="evenodd" d="M18.1249 14.5C20.7953 14.5 22.9582 12.3371 22.9582 9.66667C22.9582 6.99625 20.7953 4.83334 18.1249 4.83334C17.557 4.83334 17.0253 4.95417 16.5178 5.12334C17.5207 6.36792 18.1249 7.95084 18.1249 9.66667C18.1249 11.3825 17.5207 12.9654 16.5178 14.21C17.0253 14.3792 17.557 14.5 18.1249 14.5Z" fill="#EEF1FF"/>
<path fill-rule="evenodd" clip-rule="evenodd" d="M10.8749 15.7083C7.64867 15.7083 1.20825 17.3275 1.20825 20.5417V22.9583C1.20825 23.6229 1.752 24.1667 2.41659 24.1667H19.3333C19.9978 24.1667 20.5416 23.6229 20.5416 22.9583V20.5417C20.5416 17.3275 14.1012 15.7083 10.8749 15.7083Z" fill="#EEF1FF"/>
</g>
<defs>
<clipPath id="clip0_648_1422">
<rect width="29" height="29" fill="white"/>
</clipPath>
</defs>
</svg>
