<svg width="22" height="22" viewBox="0 0 22 22" fill="none" xmlns="http://www.w3.org/2000/svg">
<path d="M13.7502 2.19995V5.49995C13.7502 6.10746 14.2427 6.59995 14.8502 6.59995H18.1502M16.5002 3.84995C16.0106 3.41191 15.5026 2.89238 15.1819 2.55496C14.9684 2.33042 14.6736 2.19995 14.3638 2.19995H6.04991C4.83489 2.19995 3.84992 3.18492 3.84991 4.39994L3.84982 17.5999C3.84982 18.8149 4.83479 19.7999 6.04981 19.7999L15.9499 19.7999C17.1649 19.7999 18.1498 18.815 18.1499 17.6L18.1502 5.93796C18.1502 5.65669 18.0429 5.38632 17.8476 5.18382C17.4867 4.80938 16.8839 4.19326 16.5002 3.84995Z" stroke="white" stroke-width="2" stroke-linecap="round" stroke-linejoin="round"/>
</svg>
