<svg width="22" height="22" viewBox="0 0 22 22" fill="none" xmlns="http://www.w3.org/2000/svg">
<g clip-path="url(#clip0_2216_941)">
<path d="M5.49996 9.16666C4.49163 9.16666 3.66663 9.99166 3.66663 11C3.66663 12.0083 4.49163 12.8333 5.49996 12.8333C6.50829 12.8333 7.33329 12.0083 7.33329 11C7.33329 9.99166 6.50829 9.16666 5.49996 9.16666ZM16.5 9.16666C15.4916 9.16666 14.6666 9.99166 14.6666 11C14.6666 12.0083 15.4916 12.8333 16.5 12.8333C17.5083 12.8333 18.3333 12.0083 18.3333 11C18.3333 9.99166 17.5083 9.16666 16.5 9.16666ZM11 9.16666C9.99163 9.16666 9.16663 9.99166 9.16663 11C9.16663 12.0083 9.99163 12.8333 11 12.8333C12.0083 12.8333 12.8333 12.0083 12.8333 11C12.8333 9.99166 12.0083 9.16666 11 9.16666Z" fill="white"/>
</g>
<defs>
<clipPath id="clip0_2216_941">
<rect width="22" height="22" fill="white"/>
</clipPath>
</defs>
</svg>
